<svg width="828" height="822" viewBox="0 0 828 822" fill="none" xmlns="http://www.w3.org/2000/svg">
<path d="M404 616.573C525.007 616.573 623.101 518.478 623.101 397.472C623.101 276.466 525.007 178.371 404 178.371C282.994 178.371 184.899 276.466 184.899 397.472C184.899 518.478 282.994 616.573 404 616.573Z" stroke="url(#paint0_linear_4206_4447)" stroke-width="3"/>
<path opacity="0.5" d="M404 722.307C583.4 722.307 728.833 576.874 728.833 397.474C728.833 218.073 583.4 72.6406 404 72.6406C224.6 72.6406 79.167 218.073 79.167 397.474C79.167 576.874 224.6 722.307 404 722.307Z" stroke="url(#paint1_linear_4206_4447)" stroke-width="3"/>
<path opacity="0.2" d="M404 806.5C626.295 806.5 806.5 626.295 806.5 404C806.5 181.705 626.295 1.5 404 1.5C181.705 1.5 1.5 181.705 1.5 404C1.5 626.295 181.705 806.5 404 806.5Z" stroke="url(#paint2_linear_4206_4447)" stroke-width="3"/>
<defs>
<linearGradient id="paint0_linear_4206_4447" x1="404" y1="176.871" x2="404" y2="618.073" gradientUnits="userSpaceOnUse">
<stop stop-color="#82EFAA"/>
<stop offset="0.46875" stop-color="#82EFAA"/>
<stop offset="1" stop-color="white"/>
</linearGradient>
<linearGradient id="paint1_linear_4206_4447" x1="403.999" y1="71.1411" x2="403.999" y2="723.807" gradientUnits="userSpaceOnUse">
<stop stop-color="#82EFAA"/>
<stop offset="0.5" stop-color="#82EFAA"/>
<stop offset="0.795" stop-color="white"/>
</linearGradient>
<linearGradient id="paint2_linear_4206_4447" x1="404" y1="-5.52697e-08" x2="404" y2="808" gradientUnits="userSpaceOnUse">
<stop stop-color="#82EFAA"/>
<stop offset="0.5" stop-color="#82EFAA"/>
<stop offset="1" stop-color="white"/>
</linearGradient>
</defs>
</svg>
